<?xml version="1.0" encoding="utf-8"?>
<!-- Generator: Adobe Illustrator 24.2.1, SVG Export Plug-In . SVG Version: 6.00 Build 0)  -->
<svg version="1.1" id="Layer_1" xmlns="http://www.w3.org/2000/svg" xmlns:xlink="http://www.w3.org/1999/xlink" x="0px" y="0px"
	 viewBox="0 0 51.5 72" style="enable-background:new 0 0 51.5 72;" xml:space="preserve">
<style type="text/css">
	.st0{fill:#E63A48;}
</style>
<path class="st0" d="M23.3,71c1.4,1.4,3.6,1.4,4.9,0l22.2-22.2c1.2-1.2,1.5-3.2,0.5-4.6c-1.3-1.9-3.9-2-5.4-0.5L25.8,63.6L6.1,43.9
	c-1.2-1.2-3.2-1.5-4.6-0.5c-1.9,1.3-2,3.9-0.5,5.4L23.3,71z M22.3,3.5v61c0,1.9,1.6,3.5,3.5,3.5h0c1.9,0,3.5-1.6,3.5-3.5v-61
	c0-1.9-1.6-3.5-3.5-3.5h0C23.8,0,22.3,1.6,22.3,3.5z"/>
</svg>
