<?xml version="1.0" encoding="utf-8"?>
<!-- Generator: Adobe Illustrator 24.1.2, SVG Export Plug-In . SVG Version: 6.00 Build 0)  -->
<svg version="1.1" id="Layer_1" xmlns="http://www.w3.org/2000/svg" xmlns:xlink="http://www.w3.org/1999/xlink" x="0px" y="0px"
	 viewBox="0 0 72 52" style="enable-background:new 0 0 72 52;" xml:space="preserve">
<style type="text/css">
	.st0{fill:#E63947;}
</style>
<g>
	<g>
		<path class="st0" d="M1.5,23.5c-1.4,1.4-1.4,3.6,0,4.9l22.3,22.3c1.4,1.4,3.6,1.4,4.9,0c1.4-1.4,1.4-3.6,0-4.9L8.9,26L28.7,6.2
			c1.4-1.4,1.4-3.6,0-4.9c-1.4-1.4-3.6-1.4-4.9,0L1.5,23.5z M68.6,22.5H4v7h64.6c1.9,0,3.4-1.5,3.4-3.4v-0.2
			C72,24,70.5,22.5,68.6,22.5z"/>
	</g>
</g>
</svg>
