<svg width="60" height="77" viewBox="0 0 60 77" fill="none" xmlns="http://www.w3.org/2000/svg">
<g clip-path="url(#clip0)">
<path d="M1.26785 61.855C1.30211 61.7862 1.30211 61.7174 1.33638 61.683L1.8161 61.8894C1.8161 61.9582 1.78184 62.027 1.78184 62.0614L1.26785 61.855ZM1.88464 61.683L1.40491 61.4765C2.63849 57.7955 5.55111 54.8713 9.25185 53.6329V53.8737C5.72244 55.1466 2.94689 58.0363 1.88464 61.683ZM3.01542 65.192C3.01542 64.4007 3.11822 63.6095 3.28955 62.8526L11.1708 66.0176C11.1708 66.3272 11.1022 66.396 11.3078 66.5336C11.5134 66.7401 12.1987 66.5336 12.5414 66.5336C12.8841 66.5336 13.8435 66.5336 13.8435 66.5336C13.8435 66.5336 13.912 66.4648 13.9806 66.396L23.1639 67.6001C22.0674 72.0724 18.0582 75.4094 13.261 75.4094C7.60708 75.4094 3.01542 70.8339 3.01542 65.192ZM24.8429 67.2561C24.8429 67.2217 24.8429 67.1873 24.8429 67.1529L25.6311 67.2217C25.6311 67.2561 25.6311 67.2905 25.6311 67.3249L24.8429 67.2561ZM27.173 62.3366L30.908 58.5524L30.771 59.5156L29.6059 63.6439L28.7493 65.1576C28.578 65.1232 28.4409 65.0888 28.2696 65.0888L27.7556 64.1255L27.4814 63.2999L27.173 62.3366ZM28.8863 44.8947L26.659 43.9315L25.2199 42.3834L25.0828 41.9362L24.5345 41.1449L23.9863 40.0784L23.438 38.7368L27.5157 40.7321L29.8801 41.7297L32.8955 42.6242L33.3067 43.3466L33.9235 43.9315L37.2473 44.1379L37.9669 43.5186L38.4123 43.3122V43.8627L38.0354 44.3443L37.7613 44.5163L37.8641 45.2732L38.5494 45.5828L38.9949 46.8213L38.9606 46.8901L39.0634 47.1653L39.1319 47.1997L39.5431 48.3005L38.1382 49.5046L37.4186 50.0206L33.5808 47.1653L28.8863 44.8947ZM35.9452 57.4171L37.4529 54.3209L38.241 53.1512L38.3781 50.7431L39.9543 49.7454L40.9138 52.2912L35.9452 57.8643V57.4171ZM23.7807 33.3356L23.3695 33.4732L22.9926 33.1292L22.8898 27.1089C22.8898 27.1089 24.5688 27.1777 24.7059 27.04C24.8429 26.9024 24.8087 26.2488 24.8772 26.1112C24.98 25.9736 25.3569 25.9736 25.4255 25.9048C25.494 25.8016 25.3227 25.0447 25.3227 25.0447L26.0765 24.9759C26.0765 24.9759 26.5563 24.5975 26.3849 24.3567C26.1108 24.0815 25.8709 23.6342 25.8709 23.6342L25.6311 23.015C25.6311 23.015 25.6996 21.8797 25.7339 21.3637C25.7681 21.2949 25.7681 21.2261 25.7339 21.1573C25.7339 21.1573 25.7339 21.1573 25.7339 21.1229C25.6996 20.9509 25.5968 20.7101 25.3227 20.2972C26.008 20.0564 26.5905 19.8156 27.0702 19.6092L27.55 24.6663L27.2416 25.1135L27.0017 26.008L26.8304 26.4896L26.659 27.3497L26.5562 29.2762L23.7807 33.3356ZM22.1359 52.3944L23.438 56.0066L23.5066 56.3506L22.7527 56.9011C22.0674 56.1098 21.3135 55.4218 20.4569 54.8025L22.1359 52.3944ZM21.4506 51.9128L20.3541 52.876L14.0491 52.1536L14.7687 45.4796V49.883L16.5505 49.2982L17.9555 51.0527L21.4506 51.2591V51.9128ZM14.426 44.9635L14.3575 45.5828L6.20217 44.7227L6.2707 44.1035L14.426 44.9635ZM6.13364 45.3764L14.289 46.2364L14.2204 46.8557L6.0651 45.9956L6.13364 45.3764ZM13.8778 49.9862L13.8092 50.6055L5.65391 49.7454L5.72244 49.1262L13.8778 49.9862ZM5.61965 50.4335L13.775 51.2935L13.7065 51.9128L5.55111 51.0527L5.61965 50.4335ZM9.90291 53.0136V52.6696H10.7938V52.7728V52.8072C10.4854 52.8416 10.177 52.9104 9.90291 53.0136ZM9.90291 53.4265C10.2113 53.3576 10.4854 53.2888 10.7938 53.22V53.4265L9.90291 53.6673V53.4265ZM3.46088 62.3022C4.3518 59.2404 6.61336 56.7979 9.56025 55.6626L11.1365 65.02C11.1365 65.02 11.1365 65.192 11.1365 65.3984L3.46088 62.3022ZM11.1708 65.8456L3.35808 62.6806C3.35808 62.6118 3.39235 62.543 3.42661 62.5086L11.1708 65.6392C11.1708 65.6736 11.1708 65.7424 11.1708 65.8456ZM12.5757 63.8159L11.9589 64.0911L10.4512 55.9722H10.9652L12.5757 63.8159ZM11.8903 55.9378L11.7533 55.1122C11.8218 55.1122 11.8561 55.1122 11.9246 55.1122L17.5785 55.9722C17.6128 55.9722 17.6471 56.0066 17.6813 56.041L17.1331 57.6923L13.2267 62.9558L11.8903 55.9378ZM23.2667 66.9809C23.2667 67.0153 23.2667 67.0153 23.2667 67.0497L19.052 66.5681L23.2667 66.9809ZM23.3352 66.4304L14.1176 65.6736C14.1176 65.5704 14.1176 65.5016 14.1176 65.5016L14.289 64.6415L14.9743 63.7471L16.3107 61.855L17.5785 59.9628L18.3324 58.7244L18.7778 58.0363L19.2918 57.0043C19.8401 57.4171 20.2855 57.8299 20.731 58.346L18.5722 59.9284C18.5722 59.9284 18.2296 60.4789 18.1953 60.7197C18.161 60.9605 18.161 61.5453 18.2296 61.6486C18.2981 61.7862 20.3883 63.5751 20.3883 63.5751L21.3135 64.5039L20.9023 65.364H20.9709L22.787 66.3272L22.9583 65.9832L23.4038 66.1896C23.3695 66.2584 23.3695 66.3272 23.3352 66.4304ZM24.6031 55.3874L23.438 53.1512V51.7063H26.3849L26.522 52.1536L27.5157 52.1192V53.0136L24.6031 55.3874ZM22.4786 57.1075L22.2045 57.3139C21.5877 56.5914 20.9023 55.9378 20.1142 55.3874L20.217 55.1466C21.0737 55.697 21.7933 56.385 22.4786 57.1075ZM13.6722 63.4031L17.9212 57.8299L18.0925 58.0707L13.8778 64.0911L13.6722 63.4031ZM25.7681 65.1576C25.7681 63.4719 25.4255 61.855 24.8429 60.3757L26.008 62.2334L26.9332 65.364C26.5905 65.536 26.3164 65.8112 26.1108 66.1208L25.0485 65.6736C25.0485 65.536 25.0485 65.3984 25.0828 65.2608C25.0828 65.192 25.0828 65.1232 25.0828 65.02C25.0828 63.4375 24.7744 61.9238 24.2262 60.5477L24.6031 60.2725C25.2884 61.7518 25.6996 63.4031 25.7339 65.1576H25.7681ZM41.462 54.6993L41.6333 55.1122C38.5494 57.1763 36.4934 60.6509 36.3564 64.6071H36.0137C36.0822 60.5821 38.1725 56.8667 41.462 54.6993ZM36.0137 64.8823C36.0137 64.8479 36.0137 64.8479 36.0137 64.8135H36.3564C36.3564 64.8479 36.3564 64.8479 36.3564 64.8823H36.0137ZM37.9669 65.192C37.9669 65.1576 37.9669 65.1232 37.9669 65.0888H47.2873C47.3558 65.5704 47.767 65.9144 48.2467 65.9144C48.795 65.9144 49.2062 65.4672 49.2062 64.9512C49.2062 64.4351 48.7607 63.9879 48.2467 63.9879C48.2124 63.9879 48.1782 63.9879 48.1439 63.9879C44.8201 61.3389 43.4152 56.1786 43.4152 56.1786C44.8201 55.4218 46.4306 54.9745 48.1096 54.9745C53.7293 54.9745 58.3209 59.55 58.3209 65.2264C58.3209 70.8683 53.7636 75.4782 48.1096 75.4782C42.5585 75.4094 37.9669 70.8339 37.9669 65.192ZM47.3215 64.8135C47.3215 64.8479 47.3215 64.8479 47.3215 64.8823H38.0011C38.0011 64.8479 38.0011 64.8479 38.0011 64.8135H47.3215ZM47.253 64.6415H38.0011C38.1725 61.4077 39.8515 58.5868 42.3187 56.8323C42.3187 56.8323 44.4432 62.543 47.253 64.6415ZM0 65.1232H0.205597C0.411194 64.8135 0.753855 64.5383 0.788121 64.2287C0.856653 63.4719 0.993718 62.715 1.23358 61.9926L1.74757 62.199C1.54198 63.0934 1.40491 64.0223 1.40491 65.02C1.40491 71.5908 6.71616 76.8887 13.2267 76.8887C18.8121 76.8887 23.4723 73.0356 24.7059 67.8065L25.6653 67.9441C25.8367 69.1482 26.8646 70.0771 28.1325 70.0771C28.4066 70.0771 28.6808 70.0427 28.9549 69.9395C29.8458 69.9395 31.0108 69.9051 31.9018 69.9051L32.2102 70.0427V70.6963H34.2661V69.6642C34.8144 69.5266 35.3626 69.3202 35.3969 69.0794C35.4654 68.6322 35.4312 68.4258 35.3969 68.3226C35.0885 67.8409 32.7584 67.7377 32.7242 67.7377C32.6214 67.7377 32.3472 65.6392 32.3472 65.6392V64.6759L33.3067 62.4742L41.1536 53.8737L41.3935 54.4585C37.8298 56.7635 35.6368 60.8573 35.8766 65.2952C35.9109 65.6736 35.2941 66.052 35.3626 66.4304L35.7738 66.0864C35.9109 65.88 36.0822 65.6736 36.0822 65.4672C36.0822 65.3296 36.0822 65.192 36.0822 65.0544H36.4249C36.4592 71.5908 41.7361 76.8887 48.2467 76.8887C54.7915 76.8887 60 71.7628 60 65.2264C60 58.6556 54.7573 53.1512 48.2467 53.1512C46.3278 53.1512 44.5117 53.6329 42.9355 54.4241L42.7984 54.0113C43.8949 53.4609 45.0942 53.0824 46.3621 52.876C47.8355 52.6352 49.309 52.704 50.6796 53.0136L50.8167 52.9104C49.3432 52.532 47.767 52.4632 46.1565 52.704C44.9229 52.876 43.7578 53.2544 42.6956 53.7705L42.3872 52.876L40.3998 47.5093L40.1942 46.5804L40.8795 45.858L42.4215 45.0667L43.1753 44.4819L43.2096 43.6907L42.5585 42.9338H41.4963L40.5711 42.5554C40.5711 42.5554 40.3998 41.9706 40.0228 41.7641C39.6459 41.5921 38.5151 41.7641 38.5151 41.7641L37.5214 41.9362L37.3158 41.2825H36.4934H34.7459L33.8892 40.9385L30.4283 38.7712L27.9269 37.1199L26.1451 35.847L25.9052 35.5718L27.9269 31.1683L27.687 30.2738L28.9206 28.6569C28.9206 28.6569 29.1605 29.001 29.8801 28.8978C30.5997 28.7946 31.3192 28.0033 31.4906 27.8313C31.6276 27.6593 32.1416 26.8336 31.6619 26.18C31.1479 25.5264 30.6682 25.6296 30.5654 25.7328C30.4626 25.836 30.4626 26.1456 30.5654 26.2832C30.6682 26.4208 30.7367 26.2832 30.908 26.4896C31.1136 26.696 31.0794 26.9368 31.0451 27.04C31.0108 27.1433 30.9423 27.2121 30.771 27.4185C30.5997 27.5905 30.3941 27.7281 30.257 27.7625C30.1199 27.7625 29.8801 27.7281 29.7087 27.6249C29.5717 27.5217 29.2975 26.9712 29.2975 26.9712L29.1262 25.7328L28.7493 25.0447L28.2353 24.7695L27.8584 19.162C28.0297 19.0588 28.1325 18.9556 28.0982 18.8867C28.064 18.8179 27.9954 18.7835 27.8241 18.7835L27.4472 12.9352L30.3598 12.1439L33.6493 11.6279L36.6648 11.7999C36.6648 11.7999 37.4871 12.4192 37.7955 12.5568C38.1039 12.66 38.4809 13.0728 38.6179 12.9696C38.7893 12.832 38.3438 12.1783 38.3438 12.0063C38.3438 11.8343 38.4123 11.6967 38.5151 11.5935C38.6522 11.4903 41.2564 11.0431 41.2564 11.0431L41.8389 11.5247C41.8389 11.5247 42.49 11.9719 42.6956 12.0063C42.8669 12.0407 43.0383 12.0751 43.1068 11.9031C43.1411 11.7311 37.5557 6.19238 37.5557 6.19238L34.506 4.36907L32.2102 3.64662L29.5374 3.3026H27.4814L25.9395 3.13059L25.7339 0H25.2541V3.02738L19.3946 4.26586L14.5288 7.22444L10.8966 11.0431L9.35465 12.66L9.11479 13.2104C9.11479 13.2104 8.97773 13.692 9.11479 13.7608C9.25186 13.864 10.1085 13.0728 10.1085 13.0728L10.9309 12.9008C10.9309 12.9008 14.0148 12.8664 14.2547 12.9008C14.4946 12.9352 14.8715 12.9696 15.0086 13.0728C15.1114 13.176 15.2142 14.0705 15.317 14.1737C15.4198 14.2769 15.9338 13.9328 16.0365 13.864C16.1393 13.8296 16.2079 13.52 16.2079 13.52L17.0303 12.9008L18.7093 12.7288L24.329 12.5568C24.329 12.5568 24.6031 13.2104 24.7401 13.176C24.8772 13.1416 25.1856 12.5912 25.1856 12.5912H25.5968L26.1108 13.0384C26.1108 13.0384 26.1793 13.692 26.2479 13.8296C26.3164 13.9672 26.5905 14.1049 26.5905 14.1049L27.036 18.8523C26.4877 18.9212 25.7681 19.0588 24.9115 19.2652C24.7059 18.7835 24.1919 18.3363 23.952 17.9579C23.3695 17.0634 22.8898 16.4098 21.759 16.4098C19.9429 16.4098 18.5037 17.8891 18.5037 19.678C18.5037 20.194 18.6065 20.6757 18.8121 21.0885C17.1331 21.6733 16.1051 22.1893 16.1736 22.3958C16.2421 22.6022 17.3044 22.499 18.9149 22.1549C18.9149 22.3958 18.9149 22.5678 18.9149 22.5678L19.2233 23.4966L19.7373 24.3911L19.6002 24.9071L17.8184 24.9415L17.6128 25.8016L17.5785 25.9736L16.8589 26.1112L13.7407 30.9963L13.5009 32.0972L14.7687 44.0347L6.03084 43.1058L5.13992 51.3623L7.81268 51.6375L7.50428 51.844V52.3256L9.21759 52.2912L9.25185 52.6352V53.22C5.41405 54.4929 2.36436 57.5547 1.13078 61.4077L1.06225 61.5797C0.822387 62.3366 0.685323 63.1278 0.582524 63.9535C0.548258 64.3319 0 64.7103 0 65.1232Z" fill="#E63947"/>
</g>
<defs>
<clipPath id="clip0">
<rect width="60" height="76.9231" fill="white"/>
</clipPath>
</defs>
</svg>
