<?xml version="1.0" encoding="utf-8"?>
<!-- Generator: Adobe Illustrator 24.2.1, SVG Export Plug-In . SVG Version: 6.00 Build 0)  -->
<svg version="1.1" id="Layer_1" xmlns="http://www.w3.org/2000/svg" xmlns:xlink="http://www.w3.org/1999/xlink" x="0px" y="0px"
	 viewBox="0 0 52 72" style="enable-background:new 0 0 52 72;" xml:space="preserve">
<style type="text/css">
	.st0{fill:none;}
	.st1{fill:#E63947;}
</style>
<rect class="st0" width="52" height="72"/>
<path class="st1" d="M28.5,1c-1.4-1.4-3.6-1.4-5,0L1.4,23.1c-1.4,1.4-1.6,3.6-0.3,5c1.4,1.5,3.7,1.5,5.1,0.1L26,8.5c0,0,0,0,0,0
	l19.6,19.6c1.4,1.4,3.6,1.6,5,0.3c1.5-1.4,1.5-3.7,0.1-5.1L28.5,1z M29.5,71.5V3.5c0,0,0,0,0,0h-6.9c0,0,0,0,0,0v67.9c0,0,0,0,0,0
	L29.5,71.5C29.5,71.5,29.5,71.5,29.5,71.5z"/>
</svg>
