<?xml version="1.0" encoding="utf-8"?>
<!-- Generator: Adobe Illustrator 24.2.1, SVG Export Plug-In . SVG Version: 6.00 Build 0)  -->
<svg version="1.1" id="Layer_1" xmlns="http://www.w3.org/2000/svg" xmlns:xlink="http://www.w3.org/1999/xlink" x="0px" y="0px"
	 viewBox="0 0 52 72" style="enable-background:new 0 0 52 72;" xml:space="preserve">
<style type="text/css">
	.st0{fill:#E63947;}
</style>
<path class="st0" d="M28.5,1c-1.4-1.4-3.6-1.4-4.9,0L1.4,23.2c-1.2,1.2-1.5,3.2-0.5,4.6c1.3,1.9,3.9,2,5.4,0.5L26,8.4l19.7,19.7
	c1.2,1.2,3.2,1.5,4.6,0.5c1.9-1.3,2-3.9,0.5-5.4L28.5,1z M29.5,68.5v-61C29.5,5.6,27.9,4,26,4h0c-1.9,0-3.5,1.6-3.5,3.5v61
	c0,1.9,1.6,3.5,3.5,3.5h0C27.9,72,29.5,70.4,29.5,68.5z"/>
</svg>
